<svg xmlns="http://www.w3.org/2000/svg" width="380" height="380" viewBox="0 0 380 380">
  <defs>
    <style>
      .d { fill: none; stroke: #8c9a83; stroke-width: 0.8; stroke-linecap: round; stroke-linejoin: round; opacity: 0.25; }
    </style>
  </defs>
  <!-- Row 1 -->
  <!-- Clock -->
  <g transform="translate(20,20)">
    <circle class="d" cx="10" cy="10" r="8"/>
    <line class="d" x1="10" y1="10" x2="10" y2="5"/>
    <line class="d" x1="10" y1="10" x2="14" y2="10"/>
  </g>
  <!-- Phone -->
  <g transform="translate(60,15)">
    <rect class="d" x="4" y="2" width="12" height="18" rx="2"/>
    <circle class="d" cx="10" cy="16" r="1.5"/>
    <line class="d" x1="7" y1="5" x2="13" y2="5"/>
  </g>
  <!-- Heart -->
  <g transform="translate(110,18)">
    <path class="d" d="M10,17 C4,12 1,8 4,5 C6,3 10,5 10,8 C10,5 14,3 16,5 C19,8 16,12 10,17Z"/>
  </g>
  <!-- Star -->
  <g transform="translate(155,15)">
    <path class="d" d="M10,2 L12.5,7.5 L18,8 L14,12 L15,18 L10,15 L5,18 L6,12 L2,8 L7.5,7.5Z"/>
  </g>
  <!-- Music note -->
  <g transform="translate(200,15)">
    <ellipse class="d" cx="7" cy="16" rx="3" ry="2.5"/>
    <line class="d" x1="10" y1="16" x2="10" y2="3"/>
    <path class="d" d="M10,3 L17,5 L17,8 L10,6"/>
  </g>
  <!-- Camera -->
  <g transform="translate(245,18)">
    <rect class="d" x="2" y="6" width="16" height="11" rx="2"/>
    <circle class="d" cx="10" cy="12" r="3.5"/>
    <path class="d" d="M6,6 L7,3 L13,3 L14,6"/>
  </g>
  <!-- Smiley -->
  <g transform="translate(295,18)">
    <circle class="d" cx="10" cy="10" r="8"/>
    <circle class="d" cx="7" cy="8" r="1"/>
    <circle class="d" cx="13" cy="8" r="1"/>
    <path class="d" d="M6,12 Q10,16 14,12"/>
  </g>
  <!-- Lock -->
  <g transform="translate(345,18)">
    <rect class="d" x="4" y="9" width="12" height="9" rx="1.5"/>
    <path class="d" d="M6,9 L6,6 C6,3 14,3 14,6 L14,9"/>
    <circle class="d" cx="10" cy="14" r="1.5"/>
  </g>

  <!-- Row 2 -->
  <!-- Envelope -->
  <g transform="translate(40,60)">
    <rect class="d" x="2" y="4" width="16" height="12" rx="1.5"/>
    <path class="d" d="M2,4 L10,11 L18,4"/>
  </g>
  <!-- Globe -->
  <g transform="translate(90,58)">
    <circle class="d" cx="10" cy="10" r="8"/>
    <ellipse class="d" cx="10" cy="10" rx="4" ry="8"/>
    <line class="d" x1="2" y1="10" x2="18" y2="10"/>
    <line class="d" x1="10" y1="2" x2="10" y2="18"/>
  </g>
  <!-- Thumbs up -->
  <g transform="translate(140,58)">
    <path class="d" d="M8,18 L4,18 L4,10 L8,10 L8,18Z"/>
    <path class="d" d="M8,10 L10,4 C10,2 14,2 14,5 L13,10 L17,10 C18,10 19,12 18,13 L16,18 L8,18"/>
  </g>
  <!-- Pencil -->
  <g transform="translate(185,55)">
    <path class="d" d="M3,17 L2,20 L5,19 L17,7 L15,5Z"/>
    <line class="d" x1="14" y1="6" x2="16" y2="8"/>
  </g>
  <!-- Gamepad -->
  <g transform="translate(230,58)">
    <rect class="d" x="1" y="6" width="18" height="10" rx="5"/>
    <line class="d" x1="6" y1="9" x2="6" y2="13"/>
    <line class="d" x1="4" y1="11" x2="8" y2="11"/>
    <circle class="d" cx="13" cy="10" r="1"/>
    <circle class="d" cx="16" cy="12" r="1"/>
  </g>
  <!-- Book -->
  <g transform="translate(280,58)">
    <path class="d" d="M10,3 C7,3 3,3 3,5 L3,17 C3,15 7,15 10,15"/>
    <path class="d" d="M10,3 C13,3 17,3 17,5 L17,17 C17,15 13,15 10,15"/>
    <line class="d" x1="10" y1="3" x2="10" y2="15"/>
  </g>
  <!-- Lightbulb -->
  <g transform="translate(330,55)">
    <path class="d" d="M10,2 C6,2 3,5 3,9 C3,12 5,13 6,15 L14,15 C15,13 17,12 17,9 C17,5 14,2 10,2Z"/>
    <line class="d" x1="7" y1="17" x2="13" y2="17"/>
    <line class="d" x1="7" y1="19" x2="13" y2="19"/>
  </g>

  <!-- Row 3 -->
  <!-- Speech bubble -->
  <g transform="translate(15,100)">
    <path class="d" d="M3,3 L17,3 C18,3 19,4 19,5 L19,13 C19,14 18,15 17,15 L7,15 L4,19 L4,15 L3,15 C2,15 1,14 1,13 L1,5 C1,4 2,3 3,3Z"/>
    <line class="d" x1="5" y1="7" x2="15" y2="7"/>
    <line class="d" x1="5" y1="11" x2="12" y2="11"/>
  </g>
  <!-- Gift box -->
  <g transform="translate(65,100)">
    <rect class="d" x="2" y="8" width="16" height="10" rx="1"/>
    <rect class="d" x="1" y="5" width="18" height="4" rx="1"/>
    <line class="d" x1="10" y1="5" x2="10" y2="18"/>
    <path class="d" d="M10,5 C8,2 5,2 5,4"/>
    <path class="d" d="M10,5 C12,2 15,2 15,4"/>
  </g>
  <!-- Key -->
  <g transform="translate(115,105)">
    <circle class="d" cx="7" cy="7" r="5"/>
    <line class="d" x1="12" y1="7" x2="20" y2="7"/>
    <line class="d" x1="17" y1="7" x2="17" y2="10"/>
    <line class="d" x1="20" y1="7" x2="20" y2="10"/>
  </g>
  <!-- Cup/Mug -->
  <g transform="translate(165,102)">
    <path class="d" d="M3,5 L3,16 C3,17 5,18 9,18 C13,18 15,17 15,16 L15,5"/>
    <path class="d" d="M15,7 C17,7 19,8 19,10 C19,12 17,13 15,13"/>
    <line class="d" x1="3" y1="5" x2="15" y2="5"/>
  </g>
  <!-- Airplane -->
  <g transform="translate(210,100)">
    <path class="d" d="M18,3 L2,10 L7,12 L18,3Z"/>
    <path class="d" d="M18,3 L10,18 L7,12"/>
    <line class="d" x1="7" y1="12" x2="10" y2="14"/>
  </g>
  <!-- Calendar -->
  <g transform="translate(260,100)">
    <rect class="d" x="2" y="4" width="16" height="15" rx="1.5"/>
    <line class="d" x1="2" y1="9" x2="18" y2="9"/>
    <line class="d" x1="6" y1="2" x2="6" y2="6"/>
    <line class="d" x1="14" y1="2" x2="14" y2="6"/>
    <line class="d" x1="6" y1="12" x2="8" y2="12"/>
    <line class="d" x1="12" y1="12" x2="14" y2="12"/>
    <line class="d" x1="6" y1="16" x2="8" y2="16"/>
  </g>
  <!-- Headphones -->
  <g transform="translate(315,100)">
    <path class="d" d="M4,12 C4,7 7,3 10,3 C13,3 16,7 16,12"/>
    <rect class="d" x="2" y="12" width="4" height="6" rx="1"/>
    <rect class="d" x="14" y="12" width="4" height="6" rx="1"/>
  </g>

  <!-- Row 4 -->
  <!-- Pizza -->
  <g transform="translate(35,148)">
    <path class="d" d="M10,2 L2,18 L18,18Z"/>
    <circle class="d" cx="8" cy="13" r="1.5"/>
    <circle class="d" cx="12" cy="11" r="1.5"/>
    <circle class="d" cx="10" cy="16" r="1"/>
  </g>
  <!-- Rocket -->
  <g transform="translate(85,145)">
    <path class="d" d="M10,2 C8,5 7,10 7,14 L13,14 C13,10 12,5 10,2Z"/>
    <path class="d" d="M7,14 L4,17 L7,16"/>
    <path class="d" d="M13,14 L16,17 L13,16"/>
    <line class="d" x1="8" y1="18" x2="12" y2="18"/>
  </g>
  <!-- Flower -->
  <g transform="translate(135,148)">
    <circle class="d" cx="10" cy="8" r="3"/>
    <circle class="d" cx="10" cy="4" r="2.5"/>
    <circle class="d" cx="14" cy="7" r="2.5"/>
    <circle class="d" cx="13" cy="11" r="2.5"/>
    <circle class="d" cx="7" cy="11" r="2.5"/>
    <circle class="d" cx="6" cy="7" r="2.5"/>
    <line class="d" x1="10" y1="11" x2="10" y2="19"/>
  </g>
  <!-- Shopping bag -->
  <g transform="translate(185,148)">
    <rect class="d" x="3" y="7" width="14" height="12" rx="1"/>
    <path class="d" d="M7,7 L7,5 C7,3 8,2 10,2 C12,2 13,3 13,5 L13,7"/>
  </g>
  <!-- Trophy -->
  <g transform="translate(235,148)">
    <path class="d" d="M6,3 L14,3 L14,10 C14,13 12,15 10,15 C8,15 6,13 6,10Z"/>
    <path class="d" d="M6,5 C4,5 2,6 2,8 C2,10 4,11 6,10"/>
    <path class="d" d="M14,5 C16,5 18,6 18,8 C18,10 16,11 14,10"/>
    <line class="d" x1="10" y1="15" x2="10" y2="17"/>
    <line class="d" x1="6" y1="18" x2="14" y2="18"/>
  </g>
  <!-- Palette -->
  <g transform="translate(290,148)">
    <path class="d" d="M10,2 C5,2 1,6 1,11 C1,16 5,20 10,18 C14,16 12,13 14,12 C16,11 19,13 19,10 C19,5 15,2 10,2Z"/>
    <circle class="d" cx="6" cy="8" r="1.5"/>
    <circle class="d" cx="10" cy="6" r="1.5"/>
    <circle class="d" cx="14" cy="8" r="1.5"/>
    <circle class="d" cx="5" cy="13" r="1.5"/>
  </g>
  <!-- Umbrella -->
  <g transform="translate(345,148)">
    <path class="d" d="M2,10 C2,5 6,2 10,2 C14,2 18,5 18,10"/>
    <line class="d" x1="10" y1="2" x2="10" y2="18"/>
    <path class="d" d="M10,18 C8,18 7,17 7,16"/>
  </g>

  <!-- Row 5 -->
  <!-- Sun -->
  <g transform="translate(15,195)">
    <circle class="d" cx="10" cy="10" r="4"/>
    <line class="d" x1="10" y1="2" x2="10" y2="4"/>
    <line class="d" x1="10" y1="16" x2="10" y2="18"/>
    <line class="d" x1="2" y1="10" x2="4" y2="10"/>
    <line class="d" x1="16" y1="10" x2="18" y2="10"/>
    <line class="d" x1="4.3" y1="4.3" x2="5.7" y2="5.7"/>
    <line class="d" x1="14.3" y1="14.3" x2="15.7" y2="15.7"/>
    <line class="d" x1="4.3" y1="15.7" x2="5.7" y2="14.3"/>
    <line class="d" x1="14.3" y1="5.7" x2="15.7" y2="4.3"/>
  </g>
  <!-- Cloud -->
  <g transform="translate(55,198)">
    <path class="d" d="M6,16 C3,16 1,14 1,12 C1,10 3,8 5,8 C5,5 8,3 11,3 C14,3 17,5 17,8 C19,8 20,10 20,12 C20,14 18,16 16,16Z"/>
  </g>
  <!-- Bicycle -->
  <g transform="translate(105,198)">
    <circle class="d" cx="5" cy="14" r="4"/>
    <circle class="d" cx="17" cy="14" r="4"/>
    <path class="d" d="M5,14 L9,6 L14,6"/>
    <path class="d" d="M9,6 L17,14"/>
    <path class="d" d="M14,6 L12,14"/>
  </g>
  <!-- Compass -->
  <g transform="translate(160,195)">
    <circle class="d" cx="10" cy="10" r="8"/>
    <path class="d" d="M10,4 L12,10 L10,16 L8,10Z"/>
    <circle class="d" cx="10" cy="10" r="2"/>
  </g>
  <!-- Dice -->
  <g transform="translate(210,195)">
    <rect class="d" x="2" y="2" width="16" height="16" rx="2"/>
    <circle class="d" cx="6" cy="6" r="1.2"/>
    <circle class="d" cx="14" cy="6" r="1.2"/>
    <circle class="d" cx="6" cy="14" r="1.2"/>
    <circle class="d" cx="14" cy="14" r="1.2"/>
    <circle class="d" cx="10" cy="10" r="1.2"/>
  </g>
  <!-- Diamond -->
  <g transform="translate(260,195)">
    <path class="d" d="M4,8 L10,2 L16,8 L10,19Z"/>
    <line class="d" x1="4" y1="8" x2="16" y2="8"/>
    <line class="d" x1="7" y1="8" x2="10" y2="2"/>
    <line class="d" x1="13" y1="8" x2="10" y2="2"/>
    <line class="d" x1="7" y1="8" x2="10" y2="19"/>
    <line class="d" x1="13" y1="8" x2="10" y2="19"/>
  </g>
  <!-- Butterfly -->
  <g transform="translate(310,198)">
    <path class="d" d="M10,6 C6,2 1,4 2,8 C3,11 7,12 10,10"/>
    <path class="d" d="M10,6 C14,2 19,4 18,8 C17,11 13,12 10,10"/>
    <path class="d" d="M10,10 C7,14 2,14 3,17"/>
    <path class="d" d="M10,10 C13,14 18,14 17,17"/>
    <line class="d" x1="10" y1="6" x2="10" y2="18"/>
  </g>

  <!-- Row 6 -->
  <!-- Basketball -->
  <g transform="translate(35,240)">
    <circle class="d" cx="10" cy="10" r="8"/>
    <path class="d" d="M2,10 C6,8 14,8 18,10"/>
    <path class="d" d="M2,10 C6,12 14,12 18,10"/>
    <line class="d" x1="10" y1="2" x2="10" y2="18"/>
  </g>
  <!-- Film -->
  <g transform="translate(90,240)">
    <rect class="d" x="2" y="3" width="16" height="14" rx="1"/>
    <line class="d" x1="6" y1="3" x2="6" y2="17"/>
    <line class="d" x1="14" y1="3" x2="14" y2="17"/>
    <line class="d" x1="2" y1="7" x2="6" y2="7"/>
    <line class="d" x1="2" y1="13" x2="6" y2="13"/>
    <line class="d" x1="14" y1="7" x2="18" y2="7"/>
    <line class="d" x1="14" y1="13" x2="18" y2="13"/>
  </g>
  <!-- House -->
  <g transform="translate(145,238)">
    <path class="d" d="M2,10 L10,3 L18,10"/>
    <rect class="d" x="4" y="10" width="12" height="9" rx="0.5"/>
    <rect class="d" x="8" y="13" width="4" height="6"/>
  </g>
  <!-- Flag -->
  <g transform="translate(195,238)">
    <line class="d" x1="4" y1="2" x2="4" y2="19"/>
    <path class="d" d="M4,3 L16,3 L13,7 L16,11 L4,11"/>
  </g>
  <!-- Paw -->
  <g transform="translate(245,240)">
    <ellipse class="d" cx="10" cy="13" rx="4" ry="3.5"/>
    <circle class="d" cx="6" cy="7" r="2"/>
    <circle class="d" cx="14" cy="7" r="2"/>
    <circle class="d" cx="3" cy="11" r="1.8"/>
    <circle class="d" cx="17" cy="11" r="1.8"/>
  </g>
  <!-- Anchor -->
  <g transform="translate(300,238)">
    <circle class="d" cx="10" cy="5" r="3"/>
    <line class="d" x1="10" y1="8" x2="10" y2="19"/>
    <line class="d" x1="6" y1="12" x2="14" y2="12"/>
    <path class="d" d="M3,16 C3,12 6,10 10,10 C14,10 17,12 17,16"/>
  </g>
  <!-- Bell -->
  <g transform="translate(350,240)">
    <path class="d" d="M4,14 C4,8 6,4 10,4 C14,4 16,8 16,14"/>
    <line class="d" x1="2" y1="14" x2="18" y2="14"/>
    <line class="d" x1="10" y1="2" x2="10" y2="4"/>
    <path class="d" d="M8,14 C8,16 9,17 10,17 C11,17 12,16 12,14"/>
  </g>

  <!-- Row 7 -->
  <!-- Leaf -->
  <g transform="translate(20,285)">
    <path class="d" d="M3,17 C3,10 7,3 17,3 C17,13 10,17 3,17Z"/>
    <path class="d" d="M3,17 C8,12 12,8 17,3"/>
  </g>
  <!-- Crown -->
  <g transform="translate(65,285)">
    <path class="d" d="M3,16 L3,6 L7,10 L10,4 L13,10 L17,6 L17,16Z"/>
    <line class="d" x1="3" y1="16" x2="17" y2="16"/>
  </g>
  <!-- Scissors -->
  <g transform="translate(115,288)">
    <circle class="d" cx="5" cy="5" r="3"/>
    <circle class="d" cx="5" cy="15" r="3"/>
    <line class="d" x1="7.5" y1="7" x2="18" y2="15"/>
    <line class="d" x1="7.5" y1="13" x2="18" y2="5"/>
  </g>
  <!-- Microphone -->
  <g transform="translate(165,283)">
    <rect class="d" x="6" y="2" width="8" height="11" rx="4"/>
    <path class="d" d="M3,10 C3,14 6,17 10,17 C14,17 17,14 17,10"/>
    <line class="d" x1="10" y1="17" x2="10" y2="20"/>
    <line class="d" x1="7" y1="20" x2="13" y2="20"/>
  </g>
  <!-- Laptop -->
  <g transform="translate(215,288)">
    <rect class="d" x="3" y="3" width="14" height="10" rx="1"/>
    <path class="d" d="M1,13 L3,13 L3,15 L17,15 L17,13 L19,13 L19,15 C19,16 18,17 17,17 L3,17 C2,17 1,16 1,15Z"/>
  </g>
  <!-- Pin -->
  <g transform="translate(268,283)">
    <path class="d" d="M10,18 C10,18 3,11 3,7 C3,4 6,2 10,2 C14,2 17,4 17,7 C17,11 10,18 10,18Z"/>
    <circle class="d" cx="10" cy="7" r="2.5"/>
  </g>
  <!-- Puzzle piece -->
  <g transform="translate(318,288)">
    <path class="d" d="M3,7 L7,7 C7,5 9,4 10,4 C11,4 13,5 13,7 L17,7 L17,11 C15,11 14,12 14,13 C14,14 15,15 17,15 L17,19 L3,19 L3,15 C5,15 6,14 6,13 C6,12 5,11 3,11Z"/>
  </g>

  <!-- Row 8 -->
  <!-- Candy -->
  <g transform="translate(40,330)">
    <circle class="d" cx="10" cy="10" r="5"/>
    <path class="d" d="M5.5,14.5 L2,18"/>
    <path class="d" d="M14.5,5.5 L18,2"/>
    <path class="d" d="M7,6 C9,8 11,8 13,6"/>
    <path class="d" d="M7,14 C9,12 11,12 13,14"/>
  </g>
  <!-- Feather -->
  <g transform="translate(95,328)">
    <path class="d" d="M3,18 L8,13 C5,13 4,10 6,8 C8,6 5,5 5,3 C8,3 10,5 10,7 C12,4 16,3 17,5 C18,7 14,9 12,9 L7,14"/>
    <line class="d" x1="3" y1="18" x2="7" y2="14"/>
  </g>
  <!-- Snowflake -->
  <g transform="translate(145,330)">
    <line class="d" x1="10" y1="2" x2="10" y2="18"/>
    <line class="d" x1="3" y1="6" x2="17" y2="14"/>
    <line class="d" x1="3" y1="14" x2="17" y2="6"/>
    <line class="d" x1="8" y1="3" x2="12" y2="5"/>
    <line class="d" x1="8" y1="17" x2="12" y2="15"/>
  </g>
  <!-- Shield -->
  <g transform="translate(200,328)">
    <path class="d" d="M10,2 L3,5 L3,11 C3,15 6,18 10,19 C14,18 17,15 17,11 L17,5Z"/>
    <path class="d" d="M7,10 L9,12 L13,8"/>
  </g>
  <!-- Bolt -->
  <g transform="translate(250,328)">
    <path class="d" d="M12,2 L5,11 L9,11 L8,19 L15,10 L11,10Z"/>
  </g>
  <!-- Fish -->
  <g transform="translate(300,332)">
    <path class="d" d="M2,10 C5,5 12,4 16,7 L19,3 L19,17 L16,13 C12,16 5,15 2,10Z"/>
    <circle class="d" cx="13" cy="9" r="1"/>
  </g>
  <!-- Infinity -->
  <g transform="translate(348,335)">
    <path class="d" d="M5,10 C5,7 7,5 10,7 C12,8.5 14,8.5 16,7 C19,5 21,7 21,10 C21,13 19,15 16,13 C14,11.5 12,11.5 10,13 C7,15 5,13 5,10Z"/>
  </g>
</svg>
