<?xml version="1.0" encoding="UTF-8"?>
<svg version="1.1" xmlns="http://www.w3.org/2000/svg" width="991" height="328">
<path d="M0 0 C109.67809524 0 109.67809524 0 137 22 C137.59296875 22.43957031 138.1859375 22.87914063 138.796875 23.33203125 C155.81370848 36.27763306 165.85240983 59.70137131 168.9375 80.25 C172.68473337 109.26144687 170.5627568 140.62184504 153 165 C152.22542459 166.22681199 151.45390841 167.45556945 150.6875 168.6875 C150.130625 169.450625 149.57375 170.21375 149 171 C148.34 171 147.68 171 147 171 C146.73316406 171.59167969 146.46632813 172.18335938 146.19140625 172.79296875 C138.26177051 187.48229398 117.97996559 196.40118438 103 201 C69.56104704 210.57678844 34.90201043 205 0 205 C0 137.35 0 69.7 0 0 Z M46 39 C46 80.58 46 122.16 46 165 C75.46559823 165.68036244 75.46559823 165.68036244 101 155 C101.73476563 154.52949219 102.46953125 154.05898437 103.2265625 153.57421875 C104.8738873 152.46178228 106.44781941 151.24174447 108 150 C108 149.34 108 148.68 108 148 C108.598125 147.75121094 109.19625 147.50242187 109.8125 147.24609375 C115.98857022 143.72793946 119.05078763 135.43512071 121.1875 128.98046875 C126.76103582 108.53523878 126.3203216 83.78298531 116 65 C115.56945312 64.20980469 115.13890625 63.41960937 114.6953125 62.60546875 C107.1408746 50.07875958 95.16280695 44.81199171 81.56835938 41.296875 C69.52619025 38.34336194 58.77241116 39 46 39 Z " fill="#1E9F91" transform="translate(776,72)"/>
<path d="M0 0 C0.33 0.66 0.66 1.32 1 2 C0.0625 4.125 0.0625 4.125 -1 6 C-1.66 6 -2.32 6 -3 6 C-3.33 7.65 -3.66 9.3 -4 11 C-4.66 11 -5.32 11 -6 11 C-6.20625 11.804375 -6.4125 12.60875 -6.625 13.4375 C-8.09756307 17.25277704 -9.98633004 20.1714843 -12.296875 23.51953125 C-14.0707766 26.10308059 -15.76064355 28.72753069 -17.4375 31.375 C-18.02015625 32.29410156 -18.6028125 33.21320313 -19.203125 34.16015625 C-19.79609375 35.09730469 -20.3890625 36.03445312 -21 37 C-22.22835537 38.93801446 -23.45750729 40.8755243 -24.6875 42.8125 C-25.26113281 43.71613281 -25.83476562 44.61976562 -26.42578125 45.55078125 C-27.71434255 47.55556521 -29.02979502 49.53318406 -30.375 51.5 C-32.1300839 53.97044803 -32.1300839 53.97044803 -33 57 C-33.66 57 -34.32 57 -35 57 C-35.268125 57.70125 -35.53625 58.4025 -35.8125 59.125 C-37.0681449 62.1649824 -38.50235123 65.0727774 -40 68 C-40.66 68 -41.32 68 -42 68 C-42.268125 68.70125 -42.53625 69.4025 -42.8125 70.125 C-44.0681449 73.1649824 -45.50235123 76.0727774 -47 79 C-47.66 79 -48.32 79 -49 79 C-49.268125 79.70125 -49.53625 80.4025 -49.8125 81.125 C-51.0681449 84.1649824 -52.50235123 87.0727774 -54 90 C-54.66 90 -55.32 90 -56 90 C-56.268125 90.70125 -56.53625 91.4025 -56.8125 92.125 C-58.0681449 95.1649824 -59.50235123 98.0727774 -61 101 C-61.66 101 -62.32 101 -63 101 C-63.20625 101.804375 -63.4125 102.60875 -63.625 103.4375 C-65.08218204 107.2129262 -66.93408174 110.10280666 -69.22998047 113.40820312 C-70.96926217 115.95499133 -72.63621756 118.53457287 -74.28515625 121.140625 C-76.63639123 124.84949757 -78.99198754 128.55532048 -81.359375 132.25390625 C-93.32654476 150.25008176 -93.32654476 150.25008176 -104 169 C-104.66 169 -105.32 169 -106 169 C-106.41185547 170.09441406 -106.41185547 170.09441406 -106.83203125 171.2109375 C-110.36620017 179.65039105 -116.07670922 187.31880453 -121 195 C-122.16733949 196.832905 -123.33400855 198.66623716 -124.5 200.5 C-125.36431641 201.85738281 -125.36431641 201.85738281 -126.24609375 203.2421875 C-127.42779898 205.10028081 -128.60744581 206.95968462 -129.78515625 208.8203125 C-133.44745264 214.59949669 -137.17572839 220.32663003 -141 226 C-143.99593752 223.20891983 -146.07739018 220.48701054 -148.09375 216.9296875 C-148.64933594 215.95 -149.20492187 214.9703125 -149.77734375 213.9609375 C-150.34582031 212.94257813 -150.91429687 211.92421875 -151.5 210.875 C-152.06847656 209.87984375 -152.63695312 208.8846875 -153.22265625 207.859375 C-159.103721 197.40718104 -163.17617958 188.2378522 -163.1875 176.125 C-163.19974609 175.44308594 -163.21199219 174.76117188 -163.22460938 174.05859375 C-163.25546708 163.25839615 -158.84143742 152.28174004 -152 144 C-151.34 144 -150.68 144 -150 144 C-149.79375 143.46890625 -149.5875 142.9378125 -149.375 142.390625 C-147.42038808 138.99226564 -144.77876283 136.48944072 -142 133.75 C-141.4534375 133.19570312 -140.906875 132.64140625 -140.34375 132.0703125 C-136.2533867 128 -136.2533867 128 -134 128 C-134 127.34 -134 126.68 -134 126 C-132.6206529 124.81311994 -131.23715997 123.6289022 -129.80078125 122.51171875 C-127.38440062 120.48321701 -125.22467815 118.23735438 -123 116 C-120.62411554 113.70767375 -118.22123889 111.44522077 -115.8125 109.1875 C-115.18408203 108.59001953 -114.55566406 107.99253906 -113.90820312 107.37695312 C-113.00424805 106.53100586 -113.00424805 106.53100586 -112.08203125 105.66796875 C-111.26569214 104.89876099 -111.26569214 104.89876099 -110.43286133 104.11401367 C-109 103 -109 103 -107 103 C-106.67 102.01 -106.34 101.02 -106 100 C-105.34 100 -104.68 100 -104 100 C-103.67 99.01 -103.34 98.02 -103 97 C-101.2578125 95.2109375 -101.2578125 95.2109375 -99.125 93.375 C-98.42632812 92.76398438 -97.72765625 92.15296875 -97.0078125 91.5234375 C-95 90 -95 90 -92 89 C-91.67 88.01 -91.34 87.02 -91 86 C-90.34 86 -89.68 86 -89 86 C-88.67 85.01 -88.34 84.02 -88 83 C-86.46875 81.45703125 -86.46875 81.45703125 -84.5 79.8125 C-83.78328125 79.2040625 -83.0665625 78.595625 -82.328125 77.96875 C-81.17570312 76.99421875 -81.17570312 76.99421875 -80 76 C-78.41213654 74.60932219 -76.82875261 73.21351225 -75.25 71.8125 C-74.53328125 71.17957031 -73.8165625 70.54664062 -73.078125 69.89453125 C-71.62334651 68.56827643 -70.21999373 67.1844095 -68.859375 65.76171875 C-67 64 -67 64 -65 64 C-64.7834375 63.44828125 -64.566875 62.8965625 -64.34375 62.328125 C-62.53504366 59.19443611 -60.18448326 57.16603494 -57.5 54.75 C-57.00113281 54.29109375 -56.50226563 53.8321875 -55.98828125 53.359375 C-52.25897507 50 -52.25897507 50 -50 50 C-49.67 49.01 -49.34 48.02 -49 47 C-48.34 47 -47.68 47 -47 47 C-46.34 45.68 -45.68 44.36 -45 43 C-44.34 43 -43.68 43 -43 43 C-43 42.34 -43 41.68 -43 41 C-41.31824617 39.52736092 -39.57788753 38.12126535 -37.8125 36.75 C-33.23559476 33.14295589 -33.23559476 33.14295589 -29.3125 28.875 C-26.27224816 25.09522744 -22.70677859 22.10891108 -19 19 C-25.81758414 24.04501226 -32.47713729 29.27978604 -39.13574219 34.53125 C-40.9766289 35.98158714 -42.81986271 37.42887869 -44.6640625 38.875 C-45.55762451 39.57592773 -45.55762451 39.57592773 -46.46923828 40.29101562 C-47.64697544 41.2146044 -48.82503027 42.13778825 -50.00341797 43.06054688 C-54.42124692 46.52639845 -58.78038364 50.06028383 -63.109375 53.63671875 C-65 55 -65 55 -67 55 C-67 55.66 -67 56.32 -67 57 C-68.65 57.66 -70.3 58.32 -72 59 C-72 59.66 -72 60.32 -72 61 C-73.4609375 62.2890625 -73.4609375 62.2890625 -75.375 63.625 C-76.00148437 64.07101563 -76.62796875 64.51703125 -77.2734375 64.9765625 C-79 66 -79 66 -81 66 C-81 66.66 -81 67.32 -81 68 C-82.43701172 69.32861328 -82.43701172 69.32861328 -84.4296875 70.8203125 C-85.14253906 71.35527344 -85.85539063 71.89023438 -86.58984375 72.44140625 C-87.34394531 72.99699219 -88.09804687 73.55257812 -88.875 74.125 C-89.99455078 74.96998047 -89.99455078 74.96998047 -91.13671875 75.83203125 C-96.73774213 80 -96.73774213 80 -99 80 C-99 80.66 -99 81.32 -99 82 C-100.6796875 83.2890625 -100.6796875 83.2890625 -102.875 84.625 C-103.59429687 85.07101563 -104.31359375 85.51703125 -105.0546875 85.9765625 C-107 87 -107 87 -109 87 C-109 87.66 -109 88.32 -109 89 C-110.4765625 90.19140625 -110.4765625 90.19140625 -112.625 91.5625 C-113.44742188 92.09230469 -114.26984375 92.62210937 -115.1171875 93.16796875 C-116.54417969 94.07482422 -116.54417969 94.07482422 -118 95 C-119.65960321 96.07655316 -121.31920463 97.15310906 -122.97875977 98.22973633 C-174.45045989 131.51074877 -174.45045989 131.51074877 -194 130 C-200.22916628 127.55282753 -203.14199494 121.81735782 -206 116 C-206 115.34 -206 114.68 -206 114 C-206.66 114 -207.32 114 -208 114 C-209.4606285 111.35261084 -210 110.10551666 -210 107 C-210.66 107 -211.32 107 -212 107 C-212.34683838 106.28021973 -212.69367676 105.56043945 -213.05102539 104.81884766 C-216.82932109 97.10563008 -221.00616064 89.72874301 -225.4375 82.375 C-226.8593833 79.99895214 -228.27756992 77.62070786 -229.6953125 75.2421875 C-230.05359634 74.64174622 -230.41188019 74.04130493 -230.78102112 73.42266846 C-235.77930838 65.0332118 -240.63065699 56.55905242 -245.4921875 48.08984375 C-247.7659412 44.13050569 -250.06156323 40.18558184 -252.3828125 36.25390625 C-252.90125732 35.3721875 -253.41970215 34.49046875 -253.95385742 33.58203125 C-254.91488692 31.95000485 -255.88088903 30.32089227 -256.8527832 28.6953125 C-257.27132568 27.98246094 -257.68986816 27.26960938 -258.12109375 26.53515625 C-258.4864624 25.920354 -258.85183105 25.30555176 -259.22827148 24.67211914 C-260 23 -260 23 -260 20 C-231.62 20 -203.24 20 -174 20 C-172.02 23.96 -170.04 27.92 -168 32 C-165.92850622 35.63096212 -163.83855444 39.23033057 -161.6875 42.8125 C-161.12716064 43.75448242 -160.56682129 44.69646484 -159.98950195 45.66699219 C-157.39813195 50.01791613 -154.7877361 54.35682333 -152.15625 58.68359375 C-151.73512939 59.37799561 -151.31400879 60.07239746 -150.88012695 60.7878418 C-150.10439218 62.06411209 -149.32449543 63.3378651 -148.53979492 64.60864258 C-146 68.77931033 -146 68.77931033 -146 71 C-137.79774195 70.96140114 -130.98065841 68.31592259 -123.56689453 65.10595703 C-120.50991674 63.78884562 -117.44060334 62.50247518 -114.37109375 61.21484375 C-87.91782261 50.069366 -63.0976838 36.8799966 -38.7487793 21.6640625 C-32.69630282 18 -32.69630282 18 -29 18 C-29 17.34 -29 16.68 -29 16 C-28.3915625 15.67128906 -27.783125 15.34257813 -27.15625 15.00390625 C-20.5039428 11.39405131 -13.89803456 7.70780433 -7.30859375 3.98461914 C-2.19328184 1.09664092 -2.19328184 1.09664092 0 0 Z M-14 13 C-13 15 -13 15 -13 15 Z M-16 15 C-16.99 16.485 -16.99 16.485 -18 18 C-16.68 17.34 -15.36 16.68 -14 16 C-14.66 15.67 -15.32 15.34 -16 15 Z " fill="#3C589F" transform="translate(305,51)"/>
<path d="M0 0 C11.88 0 23.76 0 36 0 C42.3636891 15.37891531 42.3636891 15.37891531 45.0703125 22.1953125 C45.41320312 23.05866211 45.75609375 23.92201172 46.109375 24.81152344 C46.76544389 26.46746654 47.41925162 28.12430809 48.0703125 29.78222656 C49.73356063 33.98019553 51.49147953 38.10395374 53.39453125 42.19921875 C56.14625889 48.19024249 58.48771166 54.31488205 60.82025146 60.47897339 C65.54474995 72.94522367 70.58765631 85.2301152 75.90478516 97.45458984 C79.09738834 104.81681997 82.04013153 112.21260728 84.77734375 119.75390625 C86.23807049 123.63206574 87.95744091 127.34532296 89.71875 131.09375 C91.59815227 135.35678443 93.16549097 139.72522157 94.76953125 144.09765625 C96.20492373 147.97689643 97.73944773 151.75318364 99.5 155.5 C101.88206924 160.5771668 103.82981297 165.76626346 105.76953125 171.02294922 C108.49049971 178.37828511 111.51431427 185.59133509 114.64453125 192.78125 C114.92167969 193.42046387 115.19882812 194.05967773 115.484375 194.71826172 C116.2734998 196.53520297 117.06824591 198.34969973 117.86328125 200.1640625 C119 203 119 203 119 205 C104.15 205 89.3 205 74 205 C71.66045971 200.32091941 69.49226065 195.97904287 67.59765625 191.171875 C67.18193359 190.12386719 66.76621094 189.07585937 66.33789062 187.99609375 C65.91701172 186.92488281 65.49613281 185.85367188 65.0625 184.75 C62.18773758 177.47200796 59.27119913 170.21808585 56.24780273 163.00048828 C54.1159725 157.87425202 52.05822211 152.71863586 50 147.5625 C49.56212158 146.4679248 49.12424316 145.37334961 48.6730957 144.24560547 C46.46747519 138.7210708 44.2915213 133.18896745 42.1875 127.625 C40.39995108 122.92092389 38.37163243 118.37400973 36.25 113.8125 C34.40707398 109.66591646 32.84714662 105.42031704 31.24609375 101.17578125 C30.113125 98.28830916 28.87974001 95.49452584 27.5625 92.6875 C25.05180847 87.30744672 22.99092719 81.79441802 20.96704102 76.2175293 C19.92914041 72.85071198 19.92914041 72.85071198 18 70 C17.54560547 71.19882813 17.54560547 71.19882813 17.08203125 72.421875 C14.98481682 77.91980329 12.85807091 83.39405826 10.5625 88.8125 C8.57647995 93.51918076 6.76498922 98.27029024 5 103.0625 C2.96694326 108.57737671 0.71607283 113.90445845 -1.78515625 119.2265625 C-3.69834909 123.59430177 -5.18836937 128.10394059 -6.75390625 132.60546875 C-7.85264853 135.59859427 -9.07077157 138.43494717 -10.4375 141.3125 C-12.92662095 146.59505449 -14.84005334 152.01351038 -16.68139648 157.5480957 C-18.0448004 161.56920145 -19.60961306 165.40926595 -21.3984375 169.26171875 C-24.13242304 175.16692272 -26.39726047 181.20158 -28.625 187.3125 C-29.38484518 189.3930896 -30.14777469 191.47255586 -30.9140625 193.55078125 C-31.2435791 194.45481689 -31.5730957 195.35885254 -31.91259766 196.2902832 C-33.10699105 199.26661287 -34.56576753 202.13153507 -36 205 C-50.85 205 -65.7 205 -81 205 C-80.24926362 201.99705449 -79.42960051 199.34036263 -78.328125 196.47265625 C-77.99594971 195.60439209 -77.66377441 194.73612793 -77.3215332 193.84155273 C-76.96792725 192.92446533 -76.61432129 192.00737793 -76.25 191.0625 C-75.88801514 190.11898682 -75.52603027 189.17547363 -75.15307617 188.20336914 C-74.43093701 186.32174799 -73.70789311 184.44047378 -72.98388672 182.55957031 C-72.16306714 180.42421733 -71.34696377 178.28722688 -70.53515625 176.1484375 C-68.27628971 170.21620653 -65.9092727 164.34354611 -63.44921875 158.4921875 C-61.59731858 154.02965717 -59.79508867 149.54813727 -58 145.0625 C-57.65308105 144.19560547 -57.30616211 143.32871094 -56.94873047 142.43554688 C-55.02706167 137.61817536 -53.14753323 132.78847111 -51.3125 127.9375 C-49.84135499 124.07020909 -48.2540833 120.30961293 -46.5 116.5625 C-44.04492833 111.291768 -42.15653743 105.88575548 -40.24609375 100.3984375 C-39.14268054 97.38912876 -37.92479934 94.52369444 -36.5625 91.625 C-34.15430745 86.49909799 -32.18115407 81.26663129 -30.22412109 75.95776367 C-28.7906417 72.0802521 -27.30234529 68.24431742 -25.6875 64.4375 C-23.17247874 58.50400324 -20.83710539 52.50513531 -18.5 46.5 C-13.80811944 34.44972645 -13.80811944 34.44972645 -11.5 29 C-9.85178311 25.07492487 -8.25109853 21.13599804 -6.69921875 17.171875 C-6.13593872 15.73473145 -6.13593872 15.73473145 -5.5612793 14.26855469 C-3.70470949 9.51346599 -1.85283959 4.75654344 0 0 Z " fill="#3C60AC" transform="translate(625,72)"/>
<path d="M0 0 C0 0.66 0 1.32 0 2 C0.5775 2.268125 1.155 2.53625 1.75 2.8125 C4.0325868 4.01719859 5.9737942 5.40798115 8 7 C6.46386447 10.56514876 4.3161548 13.03870356 1.6875 15.875 C-0.94267007 18.73351281 -3.51976385 21.58473299 -5.9375 24.625 C-6.618125 25.40875 -7.29875 26.1925 -8 27 C-8.66 27 -9.32 27 -10 27 C-10.26554687 27.58265625 -10.53109375 28.1653125 -10.8046875 28.765625 C-12.03302996 31.06174228 -13.40314939 32.80356018 -15.125 34.75 C-15.66382813 35.36359375 -16.20265625 35.9771875 -16.7578125 36.609375 C-17.16773438 37.06828125 -17.57765625 37.5271875 -18 38 C-18.57959473 37.70867187 -19.15918945 37.41734375 -19.75634766 37.1171875 C-23.27418957 35.36553956 -26.82431416 33.6838304 -30.375 32 C-31.1175 31.64421875 -31.86 31.2884375 -32.625 30.921875 C-39.55184281 27.64202717 -46.19730682 24.53451956 -54 26 C-59.82357939 28.701237 -63.2072114 32.81936348 -65.4375 38.7734375 C-66.7435302 43.94314036 -65.35151357 47.7194956 -62.8125 52.1875 C-60.35980157 55.89523417 -57.76515824 57.72339269 -54 60 C-54 60.66 -54 61.32 -54 62 C-53.0925 62.20625 -52.185 62.4125 -51.25 62.625 C-46.71487741 63.92591166 -42.69255354 66.07447992 -38.51171875 68.23046875 C-35.25292526 69.87255268 -31.96608891 71.40786914 -28.64770508 72.92333984 C-17.61519153 77.9856464 -6.763926 83.32290025 1 93 C1 93.66 1 94.32 1 95 C1.66 95 2.32 95 3 95 C4.29761299 97.37191584 5.58816317 99.74724614 6.875 102.125 C7.23980469 102.79015625 7.60460937 103.4553125 7.98046875 104.140625 C11.54257676 110.74671623 13.34634913 116.63770239 13.75 124.1875 C13.79092773 124.93636475 13.83185547 125.68522949 13.87402344 126.45678711 C14.25429839 135.56868465 12.58372726 143.63796972 9 152 C8.71640625 152.67546875 8.4328125 153.3509375 8.140625 154.046875 C7.43850942 155.70280797 6.72092594 157.35216928 6 159 C5.34 159 4.68 159 4 159 C3.67 160.32 3.34 161.64 3 163 C2.34 163 1.68 163 1 163 C0.814375 163.680625 0.62875 164.36125 0.4375 165.0625 C-2.94824361 171.98119347 -9.76718761 176.72769041 -16 181 C-17.12535156 181.77537109 -17.12535156 181.77537109 -18.2734375 182.56640625 C-33.66913934 192.50634967 -52.932385 193.98876886 -70.7578125 191.46875 C-73.58386499 190.7899071 -76.2675683 189.98706447 -79 189 C-79.84175781 188.70996094 -80.68351562 188.41992188 -81.55078125 188.12109375 C-88.03160554 185.71220261 -94.00436641 182.41956289 -100 179 C-100 178.34 -100 177.68 -100 177 C-101.32 176.67 -102.64 176.34 -104 176 C-104 175.34 -104 174.68 -104 174 C-104.72574219 173.75507813 -105.45148438 173.51015625 -106.19921875 173.2578125 C-109.31287937 171.85948793 -111.31400755 170.18703779 -113.8125 167.875 C-114.60269531 167.15054688 -115.39289063 166.42609375 -116.20703125 165.6796875 C-117.09455078 164.84824219 -117.09455078 164.84824219 -118 164 C-116.40287734 159.57833633 -114.4155028 157.24472766 -111 154 C-110.34 153.01 -109.68 152.02 -109 151 C-108.34 151 -107.68 151 -107 151 C-106.72671875 150.40904541 -106.4534375 149.81809082 -106.171875 149.20922852 C-105.03670363 147.06919399 -103.84251188 145.46719726 -102.25 143.65234375 C-101.7240625 143.04712891 -101.198125 142.44191406 -100.65625 141.81835938 C-100.1096875 141.19767578 -99.563125 140.57699219 -99 139.9375 C-97.91519268 138.69790296 -96.83180417 137.45706251 -95.75 136.21484375 C-95.27046875 135.66948975 -94.7909375 135.12413574 -94.296875 134.56225586 C-92.80388257 132.81919476 -92.80388257 132.81919476 -91 130 C-88.00745382 131.40191353 -85.4045389 133.03367489 -82.75 135 C-82.04359375 135.515625 -81.3371875 136.03125 -80.609375 136.5625 C-80.07828125 137.036875 -79.5471875 137.51125 -79 138 C-79 138.66 -79 139.32 -79 140 C-78.27941406 140.27714844 -77.55882812 140.55429688 -76.81640625 140.83984375 C-73.23182551 142.31643249 -69.84080096 144.09345158 -66.40234375 145.87890625 C-60.79732413 148.49458207 -55.10236978 148.52179684 -49 148 C-45.58025081 146.71005207 -45.58025081 146.71005207 -43 145 C-42.01 144.67 -41.02 144.34 -40 144 C-38.79117904 141.99983534 -38.79117904 141.99983534 -38 140 C-37.34 140 -36.68 140 -36 140 C-32.8432543 132.45591281 -32.64569766 126.89632383 -34.8125 119.0625 C-36.21785266 116.62162432 -37.38921895 115.95728639 -40 115 C-40 114.34 -40 113.68 -40 113 C-40.67160156 112.74863281 -41.34320313 112.49726563 -42.03515625 112.23828125 C-44.9092996 111.03788146 -47.65286838 109.66794685 -50.41650391 108.23413086 C-57.31305845 104.66255206 -64.14125377 101.77765426 -71.515625 99.296875 C-77.59014929 97.0359534 -83.27163716 94.02088435 -89 91 C-89 90.34 -89 89.68 -89 89 C-90.1446875 88.5978125 -90.1446875 88.5978125 -91.3125 88.1875 C-93.88988618 87.04865495 -95.26954864 86.18583329 -97 84 C-97 83.34 -97 82.68 -97 82 C-97.66 82 -98.32 82 -99 82 C-109.50910342 69.13095756 -111.98026334 53.19626026 -110.53125 37.1484375 C-108.90678463 22.91471474 -102.50192852 11.56611311 -92 2 C-91.52691406 1.50242187 -91.05382812 1.00484375 -90.56640625 0.4921875 C-66.70802366 -22.23574803 -25.44185926 -14.60855145 0 0 Z " fill="#3C60AC" transform="translate(518,85)"/>
<path d="M0 0 C14.85 0 29.7 0 45 0 C45 67.65 45 135.3 45 205 C30.15 205 15.3 205 0 205 C0 137.35 0 69.7 0 0 Z " fill="#3C60AC" transform="translate(323,72)"/>
</svg>
